<svg width="200" height="200" viewBox="0 0 200 200" fill="none" xmlns="http://www.w3.org/2000/svg">
<path d="M134.292 137.436C133.215 132.696 128.597 129.748 123.969 130.84C123.82 130.873 123.67 130.916 123.532 130.96L123.062 131.102C116.92 132.314 110.553 130.905 105.445 127.214C98.7475 120.278 95.5162 110.58 96.6786 100.892C96.6466 99.9968 96.4973 99.1013 96.22 98.2494C94.8657 93.5749 90.0666 90.9209 85.5129 92.3079C82.7188 93.1598 80.5433 95.3879 79.7115 98.2494C79.4342 99.0903 79.2849 99.975 79.2529 100.86C77.9518 116.095 83.6467 131.091 94.6737 141.412C101.606 146.917 110.18 149.767 118.946 149.505C122.209 149.8 125.494 149.276 128.512 147.987C130.538 147.321 132.266 145.923 133.364 144.044C134.537 142.056 134.879 139.675 134.313 137.426L134.292 137.436Z" fill="#5AB4C5"/>
<path d="M133.707 107.826C133.062 98.2606 125.266 90.828 115.84 90.8172H115.28L111.376 80.5085C109.779 76.1351 105.685 73.2267 101.105 73.2159H77.9488C72.8606 73.3883 68.5023 76.9753 67.2647 82.0058L43.9607 181.29C42.4797 186.536 45.4522 192.008 50.5933 193.527C51.6194 193.829 52.6772 193.958 53.7456 193.904L135.114 193.969C140.498 194.4 145.206 190.307 145.629 184.834C145.756 183.186 145.481 181.527 144.825 180.019L142.191 172.113C146.359 169.269 149.86 165.531 152.452 161.158C162.512 143.373 156.514 120.645 139.049 110.401C137.325 109.388 135.526 108.526 133.675 107.815L133.707 107.848V107.826ZM125.033 165.563L129.507 178.824H59.6483L78.6469 98.0559L81.3127 88.0057H98.6928L102.66 98.476L105.875 107.977L115.216 105.779L116.136 105.618C117.935 105.801 119.278 107.374 119.236 109.216L118.527 118.296L127.096 120.849C136.5 123.693 142.984 132.451 143.079 142.436C142.963 148.953 139.906 155.05 134.797 158.993L133.993 159.714C133.474 160.221 132.914 160.673 132.321 161.093L125.022 165.574L125.033 165.563ZM87.5115 71.5032C105.294 71.5786 119.765 56.9503 119.828 38.8535C119.902 20.746 105.537 6.00999 87.7654 5.94536C69.9833 5.86996 55.5122 20.4982 55.4487 38.595C55.417 47.331 58.8126 55.7223 64.874 61.9054C70.8507 68.0562 79.0066 71.5139 87.5115 71.5032ZM75.082 26.1858C82.1378 19.4102 93.2556 19.7334 99.9199 26.9183C106.309 33.8123 106.309 44.5734 99.9199 51.4674C92.9488 58.1568 82.0531 58.1568 75.082 51.4674C71.7816 48.1281 69.941 43.5608 69.9727 38.8212C69.9727 34.0816 71.8133 29.5251 75.0926 26.1642H75.0715L75.082 26.1858Z" fill="#475259"/>
</svg>
