<?xml version="1.0" encoding="UTF-8"?>
<svg version="1.1" xmlns="http://www.w3.org/2000/svg" width="1200" height="1200">
<path d="M0 0 C0.94875 0.73476562 1.8975 1.46953125 2.875 2.2265625 C20.47389411 16.21139799 36.11821452 32.44999039 49.70898438 50.31933594 C50.94619811 51.92995986 52.21466939 53.51642688 53.484375 55.1015625 C66.9556308 72.04788747 77.33406947 91.11175612 87.4375 110.1875 C88.07582764 111.39116211 88.07582764 111.39116211 88.72705078 112.61914062 C90.68649335 116.35246948 92.54524183 120.03320041 94 124 C95.57514271 121.63728593 96.80555253 119.46756857 98.03125 116.9296875 C110.96712032 90.42679943 126.53188866 64.05769995 146.76953125 42.40625 C148.64245244 40.38572557 150.4470652 38.33166834 152.24609375 36.24609375 C161.85753488 25.22969627 172.38827415 14.888622 184 6 C184.97710938 5.21753906 185.95421875 4.43507812 186.9609375 3.62890625 C221.08682036 -23.5447157 262.88437624 -42.2319517 306 -49 C307.14976318 -49.18256348 308.29952637 -49.36512695 309.48413086 -49.55322266 C320.92263482 -51.1832512 332.27065785 -51.39999829 343.8125 -51.375 C345.29842148 -51.37368576 345.29842148 -51.37368576 346.81436157 -51.37234497 C362.8567825 -51.32565884 378.28749196 -50.50817819 394 -47 C395.59884033 -46.64591064 395.59884033 -46.64591064 397.22998047 -46.28466797 C442.52295922 -35.88197138 489.00462022 -11.4365558 519.15234375 24.78515625 C520.6091308 26.53145277 522.11119359 28.23997977 523.62890625 29.93359375 C570.00376455 81.91140547 592.89792866 156.38896567 593.203125 225.30078125 C593.20882507 226.33905563 593.21452515 227.37733002 593.22039795 228.44706726 C593.22977466 230.63275153 593.23635242 232.81844946 593.24023438 235.00415039 C593.24986482 238.26670578 593.28092912 241.52860933 593.3125 244.79101562 C593.6091852 303.60948265 571.89620935 359.03641183 533 403 C532.34708984 403.74048584 531.69417969 404.48097168 531.02148438 405.24389648 C525.41278526 411.54625753 519.58773142 417.59538422 513.625 423.5625 C512.75617187 424.44357422 511.88734375 425.32464844 510.9921875 426.23242188 C504.97578587 432.26217351 498.64522621 437.68023849 492 443 C490.9103042 443.92353439 489.82567274 444.85313852 488.75 445.79296875 C461.83757143 469.2266601 430.5998602 488.78076074 400 507 C399.44195679 507.33243713 398.88391357 507.66487427 398.30895996 508.00738525 C392.30852252 511.58098894 386.30307749 515.1461316 380.29321289 518.70385742 C366.79630716 526.69557586 353.37142252 534.79997813 340 543 C338.94844727 543.64420898 337.89689453 544.28841797 336.81347656 544.95214844 C322.25305862 553.89451598 308.01645164 563.2273292 294 573 C293.34918457 573.45149414 292.69836914 573.90298828 292.02783203 574.36816406 C265.92457373 592.51758065 240.78222285 612.58219895 217.25 633.96484375 C215.25010625 635.77377543 213.22730568 637.54891801 211.1875 639.3125 C199.6862203 649.37215716 188.80993686 660.03091494 178.02294922 670.84667969 C175.61149034 673.26353992 173.19467561 675.6749529 170.77734375 678.0859375 C169.21842898 679.64551251 167.65982414 681.2053974 166.1015625 682.765625 C165.39101715 683.47414612 164.6804718 684.18266724 163.94839478 684.91265869 C159.96397588 688.91559491 156.15199812 693.01633882 152.46768188 697.29763794 C150.61018482 699.45214606 148.67999573 701.53543769 146.75 703.625 C141.66783415 709.25845163 137.04072462 715.20510432 132.40283203 721.203125 C131.04523698 722.94205636 129.66637107 724.66111549 128.27734375 726.375 C115.1660699 742.61306252 103.06462603 760.23665366 96 780 C92.83227634 778.41613817 92.27211176 775.14370758 91 772 C78.49651335 742.44358132 56.6720084 717.01168864 35.25512695 693.49047852 C33.87283187 691.96392313 32.49891183 690.42966696 31.13964844 688.88256836 C24.69139469 681.57428077 17.84360939 674.69125412 10.94311523 667.81274414 C8.93422136 665.80923014 6.93075611 663.80039848 4.92773438 661.79101562 C-1.21222321 655.64786909 -7.35299119 649.59951284 -14 644 C-15.60768373 642.54554483 -17.21239715 641.08779105 -18.8125 639.625 C-23.13125657 635.72758553 -27.57762051 632.02699645 -32.1015625 628.37109375 C-34.62905727 626.30345315 -37.11350379 624.19421934 -39.5871582 622.06274414 C-46.75757114 615.90089272 -54.21953033 610.2052647 -61.83154297 604.60205078 C-64.06404356 602.95268477 -66.28467116 601.28825663 -68.50390625 599.62109375 C-92.8911589 581.37040215 -118.7183815 565.35214258 -145 550 C-146.9388289 548.86462912 -148.87763074 547.72921204 -150.81640625 546.59375 C-158.9655872 541.82719706 -167.12041904 537.07144524 -175.3125 532.37890625 C-221.9387726 505.6587249 -269.57942685 477.7557604 -309.41796875 441.3359375 C-311.50283619 439.44977906 -313.61306743 437.60869533 -315.7421875 435.7734375 C-327.11780131 425.83590561 -337.75706304 414.94445714 -347 403 C-347.93414405 401.86311961 -348.87189849 400.72919986 -349.8125 399.59765625 C-386.55566257 355.1527666 -404.26932778 300.14043391 -404.1875 242.8125 C-404.18689575 242.02520508 -404.1862915 241.23791016 -404.18566895 240.42675781 C-404.02525003 162.89355665 -382.68059821 78.99749573 -327.61328125 21.73046875 C-325.40227372 19.4203129 -323.31101451 17.06751155 -321.25 14.625 C-318.50472163 11.46694708 -315.58206824 8.71396147 -312.3828125 6.01953125 C-310.59935262 4.50797591 -308.84928265 2.95687005 -307.1171875 1.38671875 C-276.41162744 -26.2263294 -237.31171854 -44.06139419 -197 -52 C-196.1646875 -52.16516113 -195.329375 -52.33032227 -194.46875 -52.50048828 C-125.27258716 -65.40802869 -54.46815993 -42.71221881 0 0 Z " fill="#0F75BC" transform="translate(498,238)"/>
<path d="M0 0 C0.66 0.33 1.32 0.66 2 1 C-31.31108661 45.36565075 -71.49288656 71.82767117 -126 84 C-126.86608887 84.19432617 -127.73217773 84.38865234 -128.62451172 84.58886719 C-141.12077093 87.28834184 -153.75190374 88.57377351 -166.47753906 89.58789062 C-167.30083159 89.65376971 -168.12412412 89.7196488 -168.9723649 89.78752422 C-186.44862256 91.15639857 -203.85300107 91.43215975 -221.37464046 91.40731621 C-225.5695615 91.40546971 -229.76440477 91.42318374 -233.95928955 91.43908691 C-244.55618222 91.47625665 -255.15305223 91.48962537 -265.75 91.5 C-279.72403023 91.513694 -293.69794853 91.53581763 -307.671875 91.59375 C-308.50984761 91.59714473 -309.34782022 91.60053945 -310.21118593 91.60403705 C-335.90509329 91.71478809 -361.41990559 92.38851646 -387 95 C-388.6653235 95.16543232 -390.33068464 95.33048616 -391.99607849 95.49520874 C-415.75778816 97.86218479 -439.23713776 100.99059607 -462.51879883 106.42553711 C-463.41236084 106.63057861 -464.30592285 106.83562012 -465.2265625 107.046875 C-466.00596191 107.23088867 -466.78536133 107.41490234 -467.58837891 107.60449219 C-473.284888 108.53872429 -476.67793231 108.04632548 -481.6484375 105.0625 C-482.72569092 104.42207764 -483.80294434 103.78165527 -484.9128418 103.12182617 C-486.0674358 102.41543473 -487.22147675 101.70813862 -488.375 101 C-489.56594398 100.27999389 -490.75710907 99.5603534 -491.94848633 98.84106445 C-500.29136849 93.77575063 -508.52704433 88.54113531 -516.6875 83.1875 C-517.72632324 82.51267578 -518.76514648 81.83785156 -519.83544922 81.14257812 C-520.78049316 80.51158203 -521.72553711 79.88058594 -522.69921875 79.23046875 C-523.94964966 78.40131958 -523.94964966 78.40131958 -525.2253418 77.55541992 C-525.810979 77.04213135 -526.39661621 76.52884277 -527 76 C-527 73 -527 73 -525.8293457 71.53295898 C-525.28366943 71.02579346 -524.73799316 70.51862793 -524.17578125 69.99609375 C-523.56613525 69.4252002 -522.95648926 68.85430664 -522.32836914 68.26611328 C-521.33051392 67.36094971 -521.33051392 67.36094971 -520.3125 66.4375 C-519.28854126 65.50139893 -519.28854126 65.50139893 -518.24389648 64.54638672 C-495.73181026 44.19012999 -472.36627275 35.78189916 -442 33 C-440.7740638 32.88019272 -440.7740638 32.88019272 -439.52336121 32.75796509 C-431.65700599 32.03527765 -423.84613196 31.80957458 -415.94921875 31.76171875 C-415.28799578 31.75693701 -414.6267728 31.75215527 -413.94551277 31.74722862 C-408.85951723 31.71116313 -403.7736082 31.69600748 -398.6875 31.6875 C-397.92900253 31.68576027 -397.17050507 31.68402054 -396.38902283 31.68222809 C-371.32051789 31.63167311 -346.51636578 32.6316745 -321.50854492 34.43188477 C-302.50484254 35.78955338 -283.54199428 36.61335279 -264.5 37.125 C-263.81244755 37.14348495 -263.1248951 37.16196991 -262.41650772 37.18101501 C-260.3483965 37.23643651 -258.28027864 37.29160304 -256.2121582 37.34667969 C-254.18412271 37.40075435 -252.15608823 37.45486512 -250.12805748 37.50911713 C-248.14224914 37.56214371 -246.15642886 37.61472205 -244.17060852 37.66729736 C-236.34687633 37.88234496 -228.53175004 38.17207291 -220.71484375 38.5625 C-219.76534851 38.60988312 -218.81585327 38.65726624 -217.83758545 38.70608521 C-215.96034631 38.80014721 -214.08310833 38.89423257 -212.20587158 38.98834229 C-193.04835322 39.93403278 -173.90764406 40.21658658 -154.7302742 40.2458725 C-152.66830004 40.24991511 -150.60636407 40.25739441 -148.54440308 40.26568604 C-97.44218081 40.42147714 -40.83126477 34.34629919 0 0 Z " fill="#FDFEFE" transform="translate(818,637)"/>
<path d="M0 0 C20.37460761 -0.96384478 37.50240909 4.24248948 53 18 C53.59039063 18.50789063 54.18078125 19.01578125 54.7890625 19.5390625 C82.50164639 45.15021823 93.27368087 87.13229367 104.36657715 121.82713318 C106.30266135 127.86887786 108.28383171 133.89366246 110.30859375 139.90625 C110.56622498 140.67200851 110.8238562 141.43776703 111.08929443 142.22673035 C112.06387077 145.11967399 113.03987786 148.01208897 114.02410889 150.90176392 C114.68260004 152.83557439 115.33557249 154.77126143 115.98828125 156.70703125 C116.35477783 157.7844458 116.72127441 158.86186035 117.09887695 159.97192383 C118.00262427 163.00881842 118.70320017 165.8433812 119 169 C117.19140625 171.74609375 117.19140625 171.74609375 114.5625 174.4375 C114.10093506 174.91630615 113.63937012 175.3951123 113.16381836 175.88842773 C109.95675661 179.17191403 106.60794543 182.26542973 103.09375 185.21484375 C100.67530642 187.27683763 98.3801851 189.45042498 96.0625 191.625 C89.43601704 197.66571651 82.32156118 203.01323869 75.14794922 208.3828125 C73.13896611 209.89537264 71.147101 211.42741251 69.16015625 212.96875 C57.88556286 221.661955 45.99298461 229.34195557 34 237 C33.18128418 237.5259375 32.36256836 238.051875 31.51904297 238.59375 C16.82748839 248.02976414 1.82915581 256.94845915 -13.16748047 265.88818359 C-48.28217556 286.83254626 -83.10951711 308.31311036 -115 334 C-115.96268799 334.7734375 -115.96268799 334.7734375 -116.94482422 335.5625 C-128.9840193 345.2474024 -140.90716762 355.03840576 -152.26953125 365.515625 C-154.42876165 367.48024665 -156.60895234 369.40631547 -158.8125 371.3203125 C-163.02577991 374.9968531 -167.12048173 378.78786901 -171.1875 382.625 C-171.92145996 383.31722656 -172.65541992 384.00945312 -173.41162109 384.72265625 C-186.20195537 396.81119325 -186.20195537 396.81119325 -198.0703125 409.7890625 C-200.21072883 412.24144234 -202.4275194 414.60998351 -204.65625 416.98193359 C-210.72410221 423.44454096 -216.5271614 430.0189699 -222 437 C-222.48436523 437.61182129 -222.96873047 438.22364258 -223.46777344 438.85400391 C-241.56459883 461.75984967 -241.56459883 461.75984967 -254 488 C-254.66 488 -255.32 488 -256 488 C-256.53367187 486.80246094 -257.06734375 485.60492187 -257.6171875 484.37109375 C-262.54384523 473.52169034 -267.99005066 463.62990537 -275 454 C-275.48404297 453.33339355 -275.96808594 452.66678711 -276.46679688 451.97998047 C-282.15494721 444.19263179 -288.02056681 436.59112633 -294.2578125 429.234375 C-295.83447278 427.21229052 -296.96135483 425.33427471 -298 423 C-297.21625 422.9175 -296.4325 422.835 -295.625 422.75 C-294.75875 422.5025 -293.8925 422.255 -293 422 C-292.30425529 420.68160646 -291.64189664 419.34543336 -291 418 C-289.9303579 416.69743552 -288.81090522 415.43486665 -287.65625 414.20703125 C-286.99214111 413.49885254 -286.32803223 412.79067383 -285.64379883 412.06103516 C-284.58261841 410.94801025 -284.58261841 410.94801025 -283.5 409.8125 C-282.77385498 409.04728027 -282.04770996 408.28206055 -281.29956055 407.49365234 C-276.09094588 402.04683353 -270.747911 396.87840217 -265 392 C-264.06671875 391.17886719 -263.1334375 390.35773438 -262.171875 389.51171875 C-239.64892853 369.83845233 -214.16092285 354.30798743 -188 340 C-187.16774902 339.54061035 -186.33549805 339.0812207 -185.47802734 338.60791016 C-170.1020366 330.1568192 -154.14778956 323.00857023 -138.14208984 315.85351562 C-134.25317692 314.11495609 -130.37012522 312.36364772 -126.48828125 310.609375 C-115.01388339 305.4326691 -103.50842012 300.34071624 -91.94320679 295.37109375 C-76.13745424 288.57554603 -60.52592466 281.41197437 -45 274 C-43.98437988 273.51821289 -42.96875977 273.03642578 -41.92236328 272.54003906 C-17.21958186 260.76726077 5.14783141 246.87216027 25 228 C25.77988281 227.29617188 26.55976562 226.59234375 27.36328125 225.8671875 C42.48019744 211.74374538 52.55989362 191.73664811 58 172 C58.19609863 171.31164062 58.39219727 170.62328125 58.59423828 169.9140625 C64.05117808 150.13879087 63.13624889 129.1291036 60 109 C59.89816406 108.32855957 59.79632812 107.65711914 59.69140625 106.96533203 C54.83223472 75.88313141 40.59866175 39.09008897 15 19 C13.7625 18.58814453 13.7625 18.58814453 12.5 18.16796875 C9.01816971 16.54130116 8.15653338 14.41812794 6.375 11.0625 C4.48882575 7.55046061 2.8560881 4.76088517 0 2 C0 1.34 0 0.68 0 0 Z " fill="#FCFDFE" transform="translate(851,482)"/>
<path d="M0 0 C0.33 0 0.66 0 1 0 C1.5156247 13.59243993 0.58518487 25.8626792 -3 39 C-3.29753174 40.10891602 -3.29753174 40.10891602 -3.60107422 41.24023438 C-8.52355234 58.98778477 -17.13268185 75.89906223 -29 90 C-29.71422119 90.85996582 -29.71422119 90.85996582 -30.44287109 91.73730469 C-69.20270552 138.33772804 -125.06219215 162.99354558 -181.625 181.125 C-183.44026108 181.71175434 -185.25536547 182.29899371 -187.0703125 182.88671875 C-191.51454672 184.32389934 -195.9620744 185.75050427 -200.41140747 187.17181396 C-202.96872677 187.98999454 -205.52431801 188.81341401 -208.07983398 189.63720703 C-217.2618276 192.58397188 -226.45217133 195.29000764 -235.8125 197.625 C-246.0433076 200.21859619 -246.0433076 200.21859619 -256.1875 203.125 C-282.10539813 210.6159047 -309.47861567 214.2165662 -336.05297852 218.70800781 C-357.15926519 222.29419581 -378.3215573 226.97587428 -397.40625 237.03125 C-400.59496852 238.22221716 -401.76306729 238.00331786 -405 237 C-407.83764648 235.05102539 -407.83764648 235.05102539 -410.93359375 232.53515625 C-417.73978262 227.12136498 -424.81347714 222.23538793 -432.0625 217.4375 C-433.02452332 216.7982811 -433.02452332 216.7982811 -434.00598145 216.14614868 C-456.51582398 201.20791806 -479.81656667 186.09171666 -504 174 C-504 173.34 -504 172.68 -504 172 C-497.62048237 170.82416382 -491.23817498 169.66467906 -484.85351562 168.51708984 C-482.49920555 168.09046179 -480.14780293 167.65175426 -477.796875 167.20703125 C-451.88393201 162.53547479 -425.2730168 160.33010582 -399 159 C-398.20198691 158.95951255 -397.40397383 158.9190251 -396.58177853 158.87731075 C-379.52632426 158.04154393 -362.48848241 157.85167219 -345.41668892 157.83133507 C-340.74463093 157.82525258 -336.07264252 157.80855852 -331.40061951 157.78999329 C-329.77764609 157.78365986 -328.15467265 157.7773342 -326.53169918 157.77101612 C-325.72011376 157.76785031 -324.90852834 157.7646845 -324.07234943 157.76142275 C-313.24835842 157.7199711 -302.42440667 157.68661682 -291.6003418 157.67407227 C-210.7782188 157.57110737 -126.39605754 156.18657803 -64 97 C-63.51063965 96.54318848 -63.0212793 96.08637695 -62.51708984 95.61572266 C-42.80237017 77.1166724 -24.37765432 52.0609024 -15.1171875 26.484375 C-13.30698584 22.4588916 -10.80375806 18.86746463 -8.3671875 15.20166016 C-5.14453138 10.32873555 -2.43673672 5.31429012 0 0 Z " fill="#FDFEFE" transform="translate(864,582)"/>
<path d="M0 0 C3.01195728 0.07971153 4.14341357 0.66480398 6.52734375 2.5703125 C9.28874115 5.49730423 11.80366743 8.56045636 14.25 11.75 C14.99491699 12.71486328 14.99491699 12.71486328 15.75488281 13.69921875 C30.44211496 32.94013423 46.55497481 55.66492443 54.25 78.75 C54.71148438 77.80382812 55.17296875 76.85765625 55.6484375 75.8828125 C62.39914331 62.15122325 69.2938952 48.20117008 78.25 35.75 C82.91596814 36.31880373 86.48914515 38.34778741 90.4375 40.75 C91.09951416 41.15009277 91.76152832 41.55018555 92.44360352 41.96240234 C98.32697518 45.61779813 103.26152738 49.95750309 108.25 54.75 C109.55822887 55.8384873 110.87058332 56.92203997 112.1875 58 C122.11931623 66.72795972 129.20318831 77.09847842 135.25 88.75 C135.8171875 89.79285156 136.384375 90.83570313 136.96875 91.91015625 C138.25 94.75 138.25 94.75 138.25 98.75 C137.15461914 98.87004395 136.05923828 98.99008789 134.93066406 99.11376953 C115.62275701 101.25064452 96.47416836 103.37201891 77.56738281 107.95751953 C76.52936523 108.20614746 75.49134766 108.45477539 74.421875 108.7109375 C73.5359668 108.93571777 72.65005859 109.16049805 71.73730469 109.39208984 C68.94839888 109.79339883 66.95073367 109.51450108 64.25 108.75 C62.7578125 107.5078125 62.7578125 107.5078125 61.375 105.875 C46.71410096 90.42418183 25.93220084 80.10347767 6.25 72.75 C5.13383301 72.33258545 5.13383301 72.33258545 3.99511719 71.90673828 C-28.86778458 59.93886395 -66.448171 56.9635106 -100.75 63.75 C-101.50023437 63.89453613 -102.25046875 64.03907227 -103.0234375 64.18798828 C-118.47948664 67.24869275 -132.13001857 72.67091271 -145.93579102 80.20410156 C-151.28595499 83.09084504 -156.54046663 85.21292595 -162.37109375 86.97265625 C-169.40691721 89.27171843 -174.1101328 94.45497797 -177.88818359 100.60180664 C-182.49745571 110.2781592 -181.2761531 121.34114075 -181.24072266 131.80151367 C-181.21800399 157.11237946 -181.21800399 157.11237946 -187.20507812 164.56005859 C-188.75 165.75 -188.75 165.75 -191.625 166.18359375 C-198.08796235 165.28685772 -202.62811898 159.40120058 -206.55078125 154.5 C-216.9574915 139.44119447 -220.77694782 124.16784661 -217.6875 106.0625 C-212.14425303 77.14195948 -190.49741857 55.85947681 -167.06884766 39.84448242 C-123.53617698 10.84136222 -68.45874637 7.74005212 -17.8959198 2.62492371 C-11.86007527 2.00697502 -5.95252702 1.1905054 0 0 Z " fill="#FDFEFE" transform="translate(540.75,323.25)"/>
<path d="M0 0 C21.16857727 19.71675007 29.73343765 57.82833985 31.12207031 85.42602539 C32.25888067 119.66387711 22.9955621 149.06739684 -0.58203125 174.51171875 C-29.1583545 203.91901747 -68.02537152 220.73561131 -105 237 C-105.79651978 237.35058472 -106.59303955 237.70116943 -107.41369629 238.06237793 C-115.24992548 241.5106859 -123.08950554 244.951345 -130.93066406 248.38842773 C-191.22603852 274.29814709 -191.22603852 274.29814709 -248 307 C-248.75571289 307.50241211 -249.51142578 308.00482422 -250.29003906 308.52246094 C-260.48338129 315.3248316 -270.42197794 322.35303077 -280 330 C-280.9178125 330.72445313 -281.835625 331.44890625 -282.78125 332.1953125 C-297.59571879 344.07242972 -312.95841711 357.46148154 -324 373 C-328.89029951 369.0877604 -333.05320447 364.82254812 -337.24072266 360.17016602 C-341.59029025 355.37573973 -346.11423086 350.76824669 -350.6875 346.1875 C-351.38794434 345.48262451 -352.08838867 344.77774902 -352.81005859 344.05151367 C-356.79660254 340.07574923 -360.88551592 336.2822853 -365.14916992 332.60571289 C-367.76197754 330.33893599 -370.28135894 327.98267824 -372.8125 325.625 C-380.36275347 318.65414536 -388.22690509 312.10692648 -396.63671875 306.19140625 C-397.08660156 305.79824219 -397.53648437 305.40507813 -398 305 C-398 304.34 -398 303.68 -398 303 C-369.83543577 290.95235933 -340.18108824 286.17282923 -310.14282227 281.22387695 C-294.61067396 278.65967607 -279.29047359 275.76778864 -264 272 C-262.2215712 271.57721104 -260.44292798 271.15532289 -258.6640625 270.734375 C-249.57664508 268.55373823 -240.60140353 266.08320784 -231.67407227 263.31835938 C-227.82364537 262.12884427 -223.9680721 260.98319539 -220.0769043 259.93432617 C-208.57621119 256.82958062 -197.31897845 253.20557409 -186.0625 249.3125 C-184.72712692 248.85271255 -184.72712692 248.85271255 -183.36477661 248.38363647 C-177.23704703 246.27319981 -171.11621116 244.14357444 -165 242 C-164.294198 241.7529834 -163.588396 241.5059668 -162.86120605 241.25146484 C-126.72968741 228.58246132 -90.84067845 212.38014193 -61 188 C-60.22462891 187.37689941 -60.22462891 187.37689941 -59.43359375 186.74121094 C-28.60201328 161.91307703 -4.64569274 129.46252133 3 90 C3.17587646 89.12005371 3.35175293 88.24010742 3.53295898 87.33349609 C4.94109069 79.72620386 5.34771703 72.35269991 5.3125 64.625 C5.31048584 63.4069165 5.30847168 62.18883301 5.30639648 60.93383789 C5.21335561 52.41140503 4.46499652 44.17708419 3.14233398 35.76538086 C2.07798001 28.98241136 1.54519446 22.28473515 1.29125977 15.42553711 C1.0988212 10.2413943 0.62046639 5.15190538 0 0 Z " fill="#FCFDFE" transform="translate(871,525)"/>
<path d="M0 0 C1.5787746 0.00503053 3.15755078 0.00959066 4.73632812 0.01367188 C8.5534252 0.02454184 12.37044455 0.04171864 16.1875 0.0625 C15.18747585 3.09150528 14.17445911 6.09674342 13.0390625 9.078125 C9.43697901 18.57661269 7.20440133 28.12447223 5.1875 38.0625 C4.23617187 38.14886719 3.28484375 38.23523438 2.3046875 38.32421875 C-40.9675398 42.54745231 -85.61234725 52.74806695 -121.8125 78.0625 C-123.13659433 78.96502631 -124.46082535 79.8673521 -125.78515625 80.76953125 C-134.92030105 87.05109725 -143.51263504 93.71817505 -151.8125 101.0625 C-152.68261719 101.82175781 -153.55273438 102.58101562 -154.44921875 103.36328125 C-164.4633993 112.21411901 -173.51910466 121.5866322 -181.8125 132.0625 C-182.7690038 133.2306671 -183.72743909 134.39725456 -184.6875 135.5625 C-191.64503202 144.05111406 -197.92245572 152.80451245 -203.8125 162.0625 C-204.80830078 163.61130859 -204.80830078 163.61130859 -205.82421875 165.19140625 C-211.93330537 174.89407323 -217.35322929 184.98489159 -222.8125 195.0625 C-225.04159871 195.08964735 -227.27079367 195.10896254 -229.5 195.125 C-230.74136719 195.13660156 -231.98273438 195.14820313 -233.26171875 195.16015625 C-236.27485454 195.07728673 -238.89525339 194.77089449 -241.8125 194.0625 C-243.43582108 168.23365797 -232.85216519 143.44198556 -220.8125 121.0625 C-220.42835938 120.3396582 -220.04421875 119.61681641 -219.6484375 118.87207031 C-208.64733074 98.24499514 -195.43141692 79.47030153 -179.8125 62.0625 C-179.11133057 61.27311035 -179.11133057 61.27311035 -178.39599609 60.46777344 C-170.06137654 51.20708504 -160.42084211 44.51529537 -149.8125 38.0625 C-149.08788574 37.62164062 -148.36327148 37.18078125 -147.61669922 36.7265625 C-138.74833979 31.41399865 -129.58746362 26.90554346 -120.125 22.75 C-119.22370361 22.35345215 -118.32240723 21.9569043 -117.39379883 21.54833984 C-104.7159556 16.13010773 -91.63113753 12.23959958 -78.25 9 C-77.55015991 8.82918915 -76.85031982 8.6583783 -76.12927246 8.48239136 C-61.15930674 4.86226562 -46.14054446 2.59519049 -30.8125 1.0625 C-29.78358643 0.9586499 -28.75467285 0.8547998 -27.69458008 0.74780273 C-18.45967823 -0.07600846 -9.26165489 -0.05198218 0 0 Z " fill="#FDFEFE" transform="translate(698.8125,447.9375)"/>
<path d="M0 0 C0.02187378 0.86612915 0.02187378 0.86612915 0.04418945 1.74975586 C0.34724638 12.56235597 0.80991034 23.1152166 3.0715332 33.71850586 C4.33844631 39.804118 4.33844631 39.804118 3 43 C1.23535156 43.90625 1.23535156 43.90625 -1.109375 44.5 C-1.9947998 44.74097412 -2.88022461 44.98194824 -3.79248047 45.23022461 C-4.76846191 45.48425049 -5.74444336 45.73827637 -6.75 46 C-21.36365679 50.11873218 -35.10483641 55.95091371 -49 62 C-49.84288574 62.36206543 -50.68577148 62.72413086 -51.55419922 63.09716797 C-91.54512603 80.39172867 -138.29517333 110.46181281 -161 149 C-178.40839412 148.60096301 -195.70001444 148.14170494 -213 146 C-211.38570679 139.99124194 -208.28701685 134.98467902 -205.125 129.6875 C-204.54637207 128.71490234 -203.96774414 127.74230469 -203.37158203 126.74023438 C-198.00993698 117.8357871 -192.22513573 109.31992987 -186 101 C-185.53883789 100.38189453 -185.07767578 99.76378906 -184.60253906 99.12695312 C-177.92807737 90.24977696 -170.71361524 81.98546071 -163 74 C-162.40106934 73.37915527 -161.80213867 72.75831055 -161.18505859 72.11865234 C-153.52161997 64.21789433 -145.78129952 56.66994881 -137 50 C-136.44376953 49.57267578 -135.88753906 49.14535156 -135.31445312 48.70507812 C-126.25763722 41.77233631 -116.92806075 35.60802624 -107 30 C-106.35901367 29.63165039 -105.71802734 29.26330078 -105.05761719 28.88378906 C-74.00195914 11.14868568 -35.97314892 -0.21934847 0 0 Z " fill="#FDFEFE" transform="translate(702,498)"/>
<path d="M0 0 C16.99169719 10.30931727 34.07716155 20.38081319 52 29 C52.37429206 45.24011681 51.68893002 61.33897373 47 77 C43.31480742 77 42.89415251 76.29979914 40.3046875 73.81640625 C39.59304443 73.1402124 38.88140137 72.46401855 38.14819336 71.76733398 C37.39803955 71.03973877 36.64788574 70.31214355 35.875 69.5625 C35.10744385 68.829104 34.3398877 68.09570801 33.54907227 67.34008789 C28.93269468 62.91554959 24.38910635 58.42675098 19.90234375 53.87109375 C17.38229621 51.39244329 14.71397721 49.11198047 12.03125 46.8125 C9.76361428 44.7890712 7.6342305 42.66346653 5.5 40.5 C2.16879193 37.12899935 -1.25111628 33.9548597 -4.84765625 30.87109375 C-7.38052162 28.66920171 -9.84332522 26.39804174 -12.3125 24.125 C-17.18602509 19.69089111 -22.16348101 15.4386643 -27.31982422 11.33691406 C-28.53748053 10.36802625 -29.75228719 9.3955536 -30.96533203 8.42089844 C-57.28828213 -12.68809429 -88.42140827 -35.21043655 -123.85986328 -32.25537109 C-128.97374608 -31.64515875 -133.37731291 -30.22500025 -138 -28 C-138.9796875 -27.53722656 -139.959375 -27.07445312 -140.96875 -26.59765625 C-147.70542465 -23.04701201 -152.54649137 -18.67268411 -157.7043457 -13.2043457 C-161.18956402 -9.58488194 -164.18552787 -7.60594547 -168.84765625 -5.89453125 C-180.39253003 -1.09638951 -186.88230208 10.4402388 -191.65625 21.359375 C-196.18272432 33.6229624 -197.63272759 46.55119756 -198.8737793 59.49707031 C-199.42943396 64.88704868 -199.91358582 69.38169809 -203 74 C-206.86960383 76.57973588 -210.136018 76.34333653 -214.625 76.3125 C-215.43735107 76.30831055 -216.24970215 76.30412109 -217.08666992 76.29980469 C-224.20821903 76.16544932 -229.55077096 74.95978923 -235.75 71.4375 C-247.47219118 58.73845956 -248.0925667 38.35488041 -247.70703125 22.09375 C-247.41894561 18.08560195 -247.13832809 16.23569086 -245.07421875 12.71875 C-242.18847289 10.42725403 -239.23503881 8.76150668 -236 7 C-233.5496409 5.15231371 -231.22486139 3.16049098 -228.875 1.1875 C-149.10369102 -62.95115644 -82.64363082 -50.25445583 0 0 Z " fill="#FCFDFE" transform="translate(977,477)"/>
<path d="M0 0 C-0.77859375 0.48726562 -1.5571875 0.97453125 -2.359375 1.4765625 C-18.98662557 11.97317997 -35.06108516 23.19580231 -50 36 C-50.56187012 36.48065918 -51.12374023 36.96131836 -51.70263672 37.45654297 C-58.9314761 43.70227744 -65.20948823 50.3952003 -71 58 C-71.67675781 58.86109375 -72.35351562 59.7221875 -73.05078125 60.609375 C-90.42812766 83.41925106 -98.2896441 111.4264832 -94.61767578 139.97216797 C-89.76580678 169.67956567 -78.70485276 200.91537357 -56.64453125 222.31640625 C-54 225 -54 225 -54 227 C-53.44183594 227.23847656 -52.88367188 227.47695313 -52.30859375 227.72265625 C-49.48442204 229.28526902 -47.41491932 231.230068 -45.0625 233.4375 C-41.16872603 237.09054606 -37.57389542 240.1007353 -32.484375 241.87890625 C-29.26499096 243.33167861 -27.56754577 245.28943177 -25.25 247.9375 C-24.08210938 249.25041016 -24.08210938 249.25041016 -22.890625 250.58984375 C-21 253 -21 253 -20 256 C-32.74521583 258.51631067 -45.97496753 258.0241574 -58 253 C-58.87914062 252.63777344 -59.75828125 252.27554688 -60.6640625 251.90234375 C-83.32175968 241.55556253 -99.23460314 218.06772222 -111 197 C-111.44327637 196.20819336 -111.88655273 195.41638672 -112.34326172 194.60058594 C-118.00052128 184.43408408 -123.4312365 174.15761047 -128.70703125 163.7890625 C-129.11743652 162.98383148 -129.5278418 162.17860046 -129.95068359 161.34896851 C-131.98613167 157.3530014 -134.01296197 153.35306969 -136.02490234 149.34521484 C-140.25427091 140.97904832 -144.73584009 132.91138819 -149.83024597 125.03637695 C-151.5536803 122.36841582 -152.99049049 120.02852852 -154 117 C-153.27832031 115.07739258 -153.27832031 115.07739258 -152.078125 112.89453125 C-151.63509033 112.0835498 -151.19205566 111.27256836 -150.7355957 110.43701172 C-150.24534912 109.57092285 -149.75510254 108.70483398 -149.25 107.8125 C-148.75137451 106.92062988 -148.25274902 106.02875977 -147.73901367 105.10986328 C-139.10122172 89.90051622 -128.81940242 76.14918848 -117.0234375 63.24609375 C-115.42588072 61.47274404 -113.91616508 59.68316018 -112.4375 57.8125 C-109.8654923 54.84479881 -107.13152117 52.37404767 -104.14453125 49.8359375 C-102.74466266 48.6375072 -101.36560168 47.4142098 -100.01171875 46.1640625 C-80.79045419 28.42692571 -27.79968615 -9.46513124 0 0 Z " fill="#FCFDFE" transform="translate(345,249)"/>
<path d="M0 0 C3.20731801 2.7174174 5.47475217 5.80070233 7.63671875 9.38671875 C8.00539063 9.99773437 8.3740625 10.60875 8.75390625 11.23828125 C11.45445542 16.49283816 12.6368351 22.15374935 13.88671875 27.88671875 C14.1499292 29.07938354 14.1499292 29.07938354 14.41845703 30.29614258 C17.18911431 43.87683658 17.18911431 43.87683658 13.9140625 49.171875 C12.75583984 50.29916016 12.75583984 50.29916016 11.57421875 51.44921875 C10.74019531 52.29226563 9.90617187 53.1353125 9.046875 54.00390625 C8.25152344 54.79023438 7.45617187 55.5765625 6.63671875 56.38671875 C5.58256293 57.60519142 4.54000251 58.83383468 3.51171875 60.07421875 C-5.53242956 70.42240705 -15.45716492 80.02696438 -26.36328125 88.38671875 C-27.29269531 89.12148438 -28.22210938 89.85625 -29.1796875 90.61328125 C-55.3555403 110.8986958 -86.45808495 123.13990063 -120.00488281 119.06591797 C-125.86334353 118.14402252 -131.60923515 116.80984978 -137.36328125 115.38671875 C-138.15299316 115.19948242 -138.94270508 115.01224609 -139.75634766 114.81933594 C-158.70187098 110.31164824 -176.61321918 103.35648927 -194.64453125 96.08740234 C-221.72253092 85.03524832 -221.72253092 85.03524832 -249.56640625 76.19140625 C-252.36328125 75.38671875 -252.36328125 75.38671875 -253.36328125 74.38671875 C-253.58439415 70.31192381 -253.54906578 66.23336241 -253.54858398 62.15307617 C-253.55073212 60.12070531 -253.56876745 58.08891244 -253.58789062 56.05664062 C-253.59984162 47.95784787 -253.01201778 40.32027081 -251.36328125 32.38671875 C-245.41970804 36.12837666 -239.51588481 39.9227555 -233.67578125 43.82421875 C-232.75671997 44.43813477 -232.75671997 44.43813477 -231.8190918 45.06445312 C-228.76152395 47.10910517 -225.70596109 49.15672275 -222.65185547 51.20654297 C-161.85587734 94.83499992 -161.85587734 94.83499992 -90.51171875 105.69921875 C-83.02001346 103.74060299 -76.68164173 100.84604579 -70.36328125 96.38671875 C-68.84734375 95.33484375 -68.84734375 95.33484375 -67.30078125 94.26171875 C-64.35740927 91.72347381 -62.30255758 88.59782324 -60.05078125 85.44921875 C-56.59350072 80.68456324 -53.49623179 77.85013853 -48.5 74.859375 C-38.49007298 67.96039422 -35.33118892 55.6472032 -32.97412109 44.41918945 C-31.74712757 37.28637093 -32.12832028 30.03090222 -32.30078125 22.82421875 C-32.34887397 20.54452713 -32.392082 18.26511484 -32.42298889 15.98512268 C-32.45144519 13.9409807 -32.49656291 11.89709029 -32.54272461 9.85327148 C-32.32092438 5.56845325 -31.6708548 2.64920356 -28.55078125 -0.36328125 C-21.16869972 -4.58161355 -7.25953448 -4.48799854 0 0 Z " fill="#FCFDFE" transform="translate(415.36328125,432.61328125)"/>
<path d="M0 0 C1.9921875 2.16015625 1.9921875 2.16015625 3.875 5.0625 C10.16753718 14.24206266 17.26634396 21.31030574 28 25 C24.81189796 28.57767061 21.24635751 30.66968476 17.0625 32.875 C2.2835504 40.93246948 -11.792753 50.57218856 -25 61 C-25.90492188 61.71285156 -26.80984375 62.42570313 -27.7421875 63.16015625 C-44.70138931 76.31287679 -44.70138931 76.31287679 -58.01399231 92.75518799 C-59.20230439 94.73932455 -60.35612635 96.36910843 -62 98 C-65.02456193 98.63295023 -66.91926886 98.73906742 -69.921875 98.53125 C-70.76602966 98.50244751 -71.61018433 98.47364502 -72.47991943 98.44396973 C-74.47496699 98.37088353 -76.4694187 98.28045751 -78.46313477 98.17724609 C-82.49728523 97.9750791 -86.5316431 97.83055611 -90.56835938 97.69140625 C-99.60636489 97.37210769 -108.64150219 96.99506257 -117.67687988 96.60931396 C-122.00841807 96.42529705 -126.34015476 96.24607745 -130.671875 96.06640625 C-139.11478018 95.71552704 -147.55745694 95.35948669 -156 95 C-146.42250157 80.46283658 -132.83192145 67.51295537 -119 57 C-118.05543945 56.28142822 -118.05543945 56.28142822 -117.09179688 55.54833984 C-85.7526141 31.88180271 -49.65091191 13.26601121 -12 2 C-10.81921875 1.63003906 -9.6384375 1.26007812 -8.421875 0.87890625 C-2.86422598 -0.54857209 -2.86422598 -0.54857209 0 0 Z " fill="#FDFEFE" transform="translate(711,552)"/>
<path d="M0 0 C15.76452433 5.76011466 25.15958019 18.43323315 32.1640625 33.12109375 C43.37156371 57.49034532 47.80268805 84.20515904 49.0390625 110.82421875 C49.26510804 115.64686918 49.55588675 120.40583091 50.25 125.1875 C50.91 125.5175 51.57 125.8475 52.25 126.1875 C50.27 128.4975 48.29 130.8075 46.25 133.1875 C45.41339844 132.54296875 44.57679688 131.8984375 43.71484375 131.234375 C37.71071049 127.80344171 30.53389932 128.50495715 23.8125 128.4375 C22.39905248 128.40930559 20.98563849 128.37937335 19.57226562 128.34765625 C16.13166743 128.2742005 12.69120723 128.22437575 9.25 128.1875 C8.84910156 127.19492187 8.44820312 126.20234375 8.03515625 125.1796875 C2.30887529 111.35644869 -5.08140714 99.64962714 -14.75 88.1875 C-15.51763672 87.23617187 -15.51763672 87.23617187 -16.30078125 86.265625 C-26.89597869 73.35719039 -41.45688703 64.44704479 -55.75 56.1875 C-54.04877975 52.27851639 -51.49994399 49.07013255 -48.875 45.75 C-48.14796875 44.82900513 -48.14796875 44.82900513 -47.40625 43.8894043 C-42.17615195 37.34926726 -36.55216695 31.22044589 -30.75 25.1875 C-30.04593018 24.45055908 -30.04593018 24.45055908 -29.32763672 23.69873047 C-23.60759637 17.73826811 -17.67141525 12.26144443 -11.1875 7.140625 C-9.16732566 5.52189556 -7.31310764 3.84041974 -5.4375 2.0625 C-2.75 0.1875 -2.75 0.1875 0 0 Z " fill="#FDFEFE" transform="translate(682.75,292.8125)"/>
<path d="M0 0 C0.76376953 0.12358887 1.52753906 0.24717773 2.31445312 0.37451172 C49.45727165 8.32480307 99.99512567 30.2953167 129 70 C140.57733035 86.32293319 140.57733035 86.32293319 143 93 C142.67 93.66 142.34 94.32 142 95 C128.38132695 87.88083695 114.97377681 80.53694702 101.875 72.5 C101.29170929 72.14242615 100.70841858 71.78485229 100.10745239 71.41644287 C97.76632212 69.98092222 95.42548465 68.54492583 93.0851593 67.10809326 C61.33273721 47.63910955 28.29609684 27.89724608 -9 22 C-10.09570312 21.81695312 -11.19140625 21.63390625 -12.3203125 21.4453125 C-59.79891047 15.69949491 -103.06283771 39.16368451 -139.4375 67.1875 C-140.49420898 68.01701172 -140.49420898 68.01701172 -141.57226562 68.86328125 C-142.22775391 69.37632812 -142.88324219 69.889375 -143.55859375 70.41796875 C-144.41408813 71.09508911 -144.41408813 71.09508911 -145.28686523 71.78588867 C-147.11321545 73.08023663 -148.97652738 74.04929169 -151 75 C-143.53504536 49.53133124 -125.13733914 27.77181121 -102 15 C-100.88238281 14.36707031 -99.76476562 13.73414063 -98.61328125 13.08203125 C-85.5819559 6.11316969 -71.44526691 2.75147941 -57 0 C-56.0615625 -0.20625 -55.123125 -0.4125 -54.15625 -0.625 C-36.68426935 -4.00667367 -17.49807617 -2.83699852 0 0 Z " fill="#FBFDFE" transform="translate(886,398)"/>
<path d="M0 0 C0.62616211 0.34546875 1.25232422 0.6909375 1.89746094 1.046875 C16.36779109 9.12193691 29.35360771 19.34192151 42 30 C42.52239258 30.43747559 43.04478516 30.87495117 43.58300781 31.32568359 C52.38611599 38.70951515 60.83301528 46.42159972 69.19042969 54.30371094 C71.46473996 56.43564669 73.76425022 58.53900858 76.06542969 60.6418457 C81.46085732 65.57520255 86.68528795 70.63893568 91.82177734 75.84106445 C95.15402639 79.20062702 98.5973319 82.35300913 102.19921875 85.41796875 C104.70121612 87.61603586 107.00668824 89.98531802 109.3203125 92.37890625 C110.95743908 93.95892376 112.65767488 95.23381852 114.5 96.5625 C115.325 97.366875 116.15 98.17125 117 99 C115.3982214 120.85956677 98.80587987 144.10886745 86 161 C85.26136719 162.00417969 84.52273438 163.00835938 83.76171875 164.04296875 C80.41222466 168.51589565 80.41222466 168.51589565 79 170 C78.34 170 77.68 170 77 170 C76.74880905 169.22279602 76.4976181 168.44559204 76.23881531 167.64483643 C73.82279732 160.17489943 71.39811653 152.70784884 68.96460247 145.24359512 C67.71499836 141.40976406 66.46831367 137.57504422 65.22924805 133.73779297 C47.75783854 77.67783677 47.75783854 77.67783677 16 29 C14.86498047 27.72382813 14.86498047 27.72382813 13.70703125 26.421875 C4.36452369 16.48498278 -7.08097288 9.35760835 -20 5 C-21.39992188 4.52240234 -21.39992188 4.52240234 -22.828125 4.03515625 C-30.21457222 1.93717321 -37.41759956 1.69446131 -45.0625 1.625 C-46.58097534 1.60409302 -46.58097534 1.60409302 -48.13012695 1.58276367 C-49.56811646 1.59206909 -49.56811646 1.59206909 -51.03515625 1.6015625 C-51.8950415 1.60494629 -52.75492676 1.60833008 -53.64086914 1.61181641 C-56.46539508 2.07657851 -57.77649189 3.26289352 -60 5 C-62.375 4.375 -62.375 4.375 -65 3 C-66.6396875 2.195625 -66.6396875 2.195625 -68.3125 1.375 C-69.199375 0.92125 -70.08625 0.4675 -71 0 C-50.99363796 -21.88195848 -22.39022239 -12.4653583 0 0 Z " fill="#FCFDFE" transform="translate(902,469)"/>
<path d="M0 0 C0 0.66 0 1.32 0 2 C1.07507813 2.41765625 1.07507813 2.41765625 2.171875 2.84375 C15.20661719 8.17287111 23.73889508 15.84154497 29.71875 28.71484375 C40.37260966 56.03159977 37.52519927 86.43300391 26 113 C22.4915223 120.56941508 18.54046538 127.85989054 13.2890625 134.375 C11.80856698 136.17404114 11.80856698 136.17404114 10.125 139.0625 C7.29232172 142.97826115 3.90175331 146.14547052 0 149 C-0.66 149 -1.32 149 -2 149 C-2.04487549 148.31711914 -2.08975098 147.63423828 -2.13598633 146.93066406 C-4.78475281 107.54551859 -9.7132356 60.76180768 -40.75 32.4375 C-44.0185413 29.69146086 -47.36547846 27.23662864 -51 25 C-47.77518645 21.40340343 -44.12762557 19.11665705 -39.9375 16.8125 C-39.24720703 16.42884277 -38.55691406 16.04518555 -37.84570312 15.64990234 C-9.25710559 0 -9.25710559 0 0 0 Z " fill="#FDFDFE" transform="translate(745,260)"/>
<path d="M0 0 C-8.70001418 22.97284849 -23.91816474 38.53006808 -43.8828125 52.2734375 C-46.26446207 53.90113081 -46.26446207 53.90113081 -47 57 C-49.27167562 58.04431059 -51.46465794 58.91717191 -53.8125 59.75 C-70.65210501 66.14033218 -83.88978465 76.92420987 -97 89 C-101.59621508 93.08643809 -106.25605781 97.08624769 -111 101 C-116.32848118 98.16860475 -120.69202609 94.94521262 -125.1875 90.9375 C-125.84041016 90.36241699 -126.49332031 89.78733398 -127.16601562 89.19482422 C-129.11732879 87.47052969 -131.0597423 85.73671637 -133 84 C-133.53318848 83.5261084 -134.06637695 83.0522168 -134.61572266 82.56396484 C-166.65514393 54.0345682 -166.65514393 54.0345682 -170 44 C-169.19183838 43.98541748 -168.38367676 43.97083496 -167.55102539 43.95581055 C-149.53718304 43.59540635 -131.84641047 42.67995036 -114 40 C-113.24235352 39.88930176 -112.48470703 39.77860352 -111.70410156 39.66455078 C-86.13012893 35.81004353 -62.97559361 26.02384116 -42 11 C-38.52418305 8.6827887 -36.24077691 8.43954577 -32.125 7.8125 C-24.05599794 6.48063086 -16.51924835 4.00393635 -8.83251953 1.24926758 C-7.97255371 0.94529053 -7.11258789 0.64131348 -6.2265625 0.328125 C-5.45908691 0.0487207 -4.69161133 -0.23068359 -3.90087891 -0.51855469 C-2 -1 -2 -1 0 0 Z " fill="#FCFDFE" transform="translate(378,594)"/>
<path d="M0 0 C0.99 0.66 1.98 1.32 3 2 C1.97003906 2.58265625 0.94007813 3.1653125 -0.12109375 3.765625 C-44.07222312 28.93341864 -87.93826996 66.83774966 -102.23071289 117.31787109 C-109.73780095 145.65648846 -108.14404984 173.09616919 -97.3125 200.3125 C-95.90803528 204.25837706 -95.15849683 208.04716187 -94.47265625 212.16796875 C-93.99643272 215.02137422 -93.44848244 217.85217074 -92.875 220.6875 C-92.70742188 221.51636719 -92.53984375 222.34523438 -92.3671875 223.19921875 C-92.24601562 223.79347656 -92.12484375 224.38773438 -92 225 C-115.40884216 207.31331925 -129.27764603 172.87099131 -133.49609375 144.55859375 C-136.67833128 119.05018178 -130.82630501 94.30156564 -116.0234375 73.1796875 C-114.08440319 70.71533713 -112.07921863 68.34699678 -110 66 C-109.278125 65.16984375 -108.55625 64.3396875 -107.8125 63.484375 C-105.5772256 60.95416856 -103.30243452 58.46916254 -101 56 C-100.31421875 55.26007813 -99.6284375 54.52015625 -98.921875 53.7578125 C-92.51885001 47.09392353 -85.35288294 41.5581155 -78 36 C-77.43071777 35.56461914 -76.86143555 35.12923828 -76.27490234 34.68066406 C-66.38486698 27.13322967 -56.05718636 20.2925724 -45.5625 13.6171875 C-42.20019703 11.46980575 -38.96443633 9.26508363 -35.8125 6.8203125 C-25.07099589 -1.25027901 -13.20965348 -2.22531747 0 0 Z " fill="#FBFDFE" transform="translate(394,245)"/>
<path d="M0 0 C2 1 2 1 3 3.7734375 C4.03700202 7.50826509 5.04047131 11.24446762 6 15 C6.23203125 15.87011719 6.4640625 16.74023438 6.703125 17.63671875 C8.12477505 23.9427522 8.36177855 30.37121641 8.5625 36.8125 C8.61374023 37.7207251 8.66498047 38.6289502 8.71777344 39.56469727 C8.80397549 45.86851374 8.80397549 45.86851374 6.74682617 48.76367188 C4.92639795 50.40645187 3.07846858 51.6987411 1 53 C-0.11580444 53.71845093 -0.11580444 53.71845093 -1.25415039 54.45141602 C-3.74158545 55.98970825 -6.26298343 57.44207378 -8.8125 58.875 C-9.7303125 59.39384766 -10.648125 59.91269531 -11.59375 60.44726562 C-28.64577842 69.93760144 -45.80138837 76.31642905 -65 80 C-66.28777344 80.2578125 -67.57554687 80.515625 -68.90234375 80.78125 C-90.31042395 84.84959385 -112.26692445 85.41378146 -134 85 C-131.09400255 80.32939687 -127.85440243 76.53768979 -123.9375 72.6875 C-123.36386719 72.11990967 -122.79023437 71.55231934 -122.19921875 70.9675293 C-117.07055432 65.95587671 -111.66361569 61.39800324 -106 57 C-104.99453125 56.20078125 -103.9890625 55.4015625 -102.953125 54.578125 C-88.46208276 43.13500591 -72.85927411 33.67090194 -56.80126953 24.58740234 C-55.06767278 23.60502078 -53.3385121 22.61470803 -51.61669922 21.61181641 C-42.89599208 16.55194616 -35.98648691 14.44129818 -25.9140625 14.33203125 C-19.28100886 13.76934706 -13.89012455 11.00077967 -8 8 C-7.23429688 7.64808594 -6.46859375 7.29617188 -5.6796875 6.93359375 C-3.4518471 5.69532897 -3.00400916 4.29487807 -2 2 C-1.34 1.34 -0.68 0.68 0 0 Z " fill="#FCFDFE" transform="translate(797,566)"/>
<path d="M0 0 C-0.56099326 15.98830794 -9.9090197 32.06108297 -20 44 C-20.66773438 44.81339844 -21.33546875 45.62679687 -22.0234375 46.46484375 C-42.93054456 70.95710455 -77.65525758 82.52148591 -109 85 C-157.2335434 87.37875096 -207.6799519 77.74922735 -244.78857422 44.88623047 C-251.8008764 38.50752945 -258.39783902 31.66152234 -264 24 C-263.67 23.34 -263.34 22.68 -263 22 C-248.72194249 26.95774235 -234.63764621 32.28053222 -220.625 37.9375 C-172.58134742 57.2837543 -123.25441444 76.27765532 -72.43359375 55.1796875 C-52.96919037 46.58016513 -36.14080908 34.02014337 -20.71875 19.5078125 C-18.80301385 17.74071105 -16.89789213 16.07582407 -14.8828125 14.43359375 C-12.44390617 12.3747338 -10.4179587 10.37259058 -8.375 7.9375 C-1.59286389 0 -1.59286389 0 0 0 Z " fill="#FBFDFE" transform="translate(430,497)"/>
<path d="M0 0 C3.44311771 3.10519523 5.43314334 6.27701913 7.58203125 10.37109375 C7.91291748 10.99695877 8.24380371 11.62282379 8.5847168 12.26765442 C9.66769405 14.32064657 10.74002385 16.37900565 11.8125 18.4375 C12.56994284 19.87695076 13.32800809 21.31607415 14.08666992 22.75488281 C17.77787278 29.76900127 21.42350454 36.80590365 25.03125 43.86328125 C52.87155101 99.1401686 52.87155101 99.1401686 102 134 C116.80115063 138.75530709 133.1300452 138.45281613 148 134 C148.66 133.34 149.32 132.68 150 132 C152.3828125 132.2421875 152.3828125 132.2421875 155.125 132.875 C156.03507813 133.07867188 156.94515625 133.28234375 157.8828125 133.4921875 C158.93082031 133.74355469 158.93082031 133.74355469 160 134 C156.48717608 141.85318808 148.69026278 145.89383523 141 149 C137.625 149.8125 137.625 149.8125 134 150 C133.175 150.05027344 132.35 150.10054687 131.5 150.15234375 C108.7966168 150.92351845 88.59746138 141.44815924 69 131 C68.31292969 130.63712891 67.62585938 130.27425781 66.91796875 129.90039062 C48.03333253 119.87116426 30.31189293 108.00046398 12.70703125 95.90234375 C3.60284523 89.65531398 -5.60806838 83.56636778 -14.80541992 77.45776367 C-16.53805834 76.30684767 -18.26928668 75.15380888 -20 74 C-16.94174596 52.24270699 -12.08674171 30.46155394 -4 10 C-3.37544922 8.39511719 -3.37544922 8.39511719 -2.73828125 6.7578125 C-1.84548523 4.49606258 -0.93714544 2.24363644 0 0 Z " fill="#FBFDFE" transform="translate(185,379)"/>
<path d="M0 0 C0.73065674 0.39977051 1.46131348 0.79954102 2.21411133 1.21142578 C13.76254343 7.65986376 24.68794418 15.1358129 35.125 23.25 C35.69822998 23.69456543 36.27145996 24.13913086 36.86206055 24.59716797 C39.77661165 26.9208177 42.02125063 29.23387457 44.1875 32.25 C43.52526932 32.32659348 42.86303864 32.40318695 42.18074036 32.48210144 C-24.67316765 39.27086209 -24.67316765 39.27086209 -88.8125 58.25 C-89.52519043 58.54455078 -90.23788086 58.83910156 -90.97216797 59.14257812 C-110.75917427 67.46921654 -130.13352887 80.52253094 -144.8125 96.25 C-144.8125 80.28032176 -124.30629566 59.97664615 -113.8125 49.25 C-113.00296875 48.39019531 -112.1934375 47.53039062 -111.359375 46.64453125 C-87.84062953 22.17744927 -55.93128863 8.68414489 -24.0625 -1.1875 C-23.24080322 -1.44684326 -22.41910645 -1.70618652 -21.57250977 -1.97338867 C-13.19556624 -4.48431383 -7.61015706 -4.27189593 0 0 Z " fill="#FCFDFE" transform="translate(477.8125,269.75)"/>
<path d="M0 0 C1.42505859 1.05767578 1.42505859 1.05767578 2.87890625 2.13671875 C9.93512467 7.56689537 9.93512467 7.56689537 12 12 C11.08226807 12.33040283 11.08226807 12.33040283 10.14599609 12.66748047 C-9.15930737 19.65850918 -28.60654875 26.91809646 -46 38 C-49.15257745 34.89901018 -52.18385004 31.72943946 -55.14575195 28.4465332 C-76.07721467 5.32484977 -104.15432075 -13.17007183 -136.18652344 -15.20214844 C-140.65475549 -15.34654135 -145.12162978 -15.42465819 -149.59179688 -15.47851562 C-156.08452093 -15.634829 -161.07661825 -16.28782887 -167 -19 C-164.17630424 -21.82369576 -160.81239162 -22.39050454 -157.0625 -23.4375 C-155.90016846 -23.76681519 -155.90016846 -23.76681519 -154.71435547 -24.1027832 C-153.16811444 -24.54017062 -151.62124927 -24.97535833 -150.07373047 -25.40820312 C-148.4065552 -25.88397813 -146.75003919 -26.39702658 -145.09765625 -26.921875 C-99.52172122 -41.03385488 -37.97032956 -28.26865945 0 0 Z " fill="#FDFDFE" transform="translate(581,426)"/>
<path d="M0 0 C1.15371094 0.00322266 2.30742188 0.00644531 3.49609375 0.00976562 C4.68589844 0.01814453 5.87570312 0.02652344 7.1015625 0.03515625 C8.92107422 0.04192383 8.92107422 0.04192383 10.77734375 0.04882812 C13.76046757 0.06057271 16.74348929 0.07699785 19.7265625 0.09765625 C32.26513664 21.50226358 37.12280107 49.49437787 37.7265625 74.09765625 C37.75234375 74.84692383 37.778125 75.59619141 37.8046875 76.36816406 C38.10906848 85.81538864 37.86621969 94.99546835 36.4140625 104.34765625 C36.29643555 105.10916992 36.17880859 105.87068359 36.05761719 106.65527344 C35.68236383 108.82521678 35.23540728 110.95525622 34.7265625 113.09765625 C34.55205566 113.84080078 34.37754883 114.58394531 34.19775391 115.34960938 C33.56583222 117.49495694 32.94890675 119.22369992 31.7265625 121.09765625 C28.5078125 122.5078125 28.5078125 122.5078125 24.7265625 123.09765625 C23.52 123.34386719 22.3134375 123.59007812 21.0703125 123.84375 C19.16765625 124.18599609 19.16765625 124.18599609 17.2265625 124.53515625 C15.83058162 124.78955627 14.43475194 125.04478715 13.0390625 125.30078125 C12.33136719 125.43033203 11.62367188 125.55988281 10.89453125 125.69335938 C5.15937358 126.76288878 -0.55571204 127.93932394 -6.2734375 129.09765625 C-4.83654819 123.25838266 -3.38109712 117.43754514 -1.7109375 111.66015625 C1.34204068 100.40981984 2.13439359 89.21882088 2.1015625 77.59765625 C2.10135101 76.90232788 2.10113953 76.20699951 2.10092163 75.49060059 C2.05109344 58.991092 0.31748228 42.99095208 -7.2734375 28.09765625 C-7.71429687 27.18113281 -8.15515625 26.26460938 -8.609375 25.3203125 C-12.84583594 16.97612287 -18.53827978 9.59761798 -25.2734375 3.09765625 C-24.40460937 2.96488281 -23.53578125 2.83210937 -22.640625 2.6953125 C-21.48820313 2.51871094 -20.33578125 2.34210938 -19.1484375 2.16015625 C-18.01148438 1.98613281 -16.87453125 1.81210938 -15.703125 1.6328125 C-13.61453304 1.30691603 -11.52907469 0.95857116 -9.45117188 0.5703125 C-6.24535134 0.09347871 -3.23893839 -0.01603435 0 0 Z " fill="#FCFDFE" transform="translate(804.2734375,247.90234375)"/>
<path d="M0 0 C0.89847656 0.26103516 1.79695312 0.52207031 2.72265625 0.79101562 C8.07893362 2.36983101 13.29620106 4.16312495 18.5 6.1875 C15.7766933 8.0030378 13.97904987 8.76683542 10.90625 9.67578125 C-28.96571589 21.93297352 -66.88441823 43.76184292 -91.5 78.1875 C-91.91556152 78.76016602 -92.33112305 79.33283203 -92.75927734 79.92285156 C-106.26900285 98.70479353 -118.34281093 121.24595164 -122.9699707 144.03515625 C-123.88158982 147.73706049 -125.46350648 151.11394902 -127.0625 154.5625 C-129.4674906 159.79919913 -129.4674906 159.79919913 -131.5 165.1875 C-132.16 165.1875 -132.82 165.1875 -133.5 165.1875 C-139.31320568 134.14684564 -131.26876767 103.40853657 -114.0859375 77.4609375 C-111.6728672 73.94593377 -109.12646521 70.54531022 -106.5 67.1875 C-106.08556641 66.65737305 -105.67113281 66.12724609 -105.24414062 65.58105469 C-94.56761842 52.11539451 -82.20477515 39.55662056 -68.5 29.1875 C-67.96648926 28.77757812 -67.43297852 28.36765625 -66.88330078 27.9453125 C-56.52035119 20.00498502 -45.64857517 12.96854427 -34.5 6.1875 C-33.74912109 5.7244043 -32.99824219 5.26130859 -32.22460938 4.78417969 C-30.09906814 3.48085268 -27.95966819 2.20480684 -25.8125 0.9375 C-25.18996338 0.5544873 -24.56742676 0.17147461 -23.92602539 -0.22314453 C-15.712198 -4.94678668 -8.4763814 -2.57210139 0 0 Z " fill="#FBFDFE" transform="translate(432.5,251.8125)"/>
<path d="M0 0 C13.40175799 0.86462955 28.59595422 3.70411682 41 9 C52.23485501 25.85228251 49.39873009 64.99801308 45.55786133 84.27612305 C43.24442578 93.96778831 39.64377314 104.20078567 33.3515625 112.05859375 C31.59176193 114.31086314 31.59176193 114.31086314 31 119 C24.4 119 17.8 119 11 119 C11.68359375 115.2890625 11.68359375 115.2890625 12.3671875 111.578125 C12.57601562 110.39734375 12.78484375 109.2165625 13 108 C13.16757812 107.12738525 13.33515625 106.25477051 13.5078125 105.35571289 C14.82348857 98.15649789 15.31711159 91.24919229 15.25 83.9375 C15.24323242 82.84969238 15.23646484 81.76188477 15.22949219 80.64111328 C15.10761584 70.99162396 14.39502456 61.5453039 13 52 C12.87109375 51.10603516 12.7421875 50.21207031 12.609375 49.29101562 C10.09478682 32.37575345 6.17714765 15.96526885 0 0 Z " fill="#FCFDFE" transform="translate(839,250)"/>
<path d="M0 0 C3.71041721 1.62165503 6.5502308 3.96126231 9.6875 6.5 C30.12272749 22.50064609 54.12954277 32.25146031 79 39 C80.15242188 39.32613281 81.30484375 39.65226563 82.4921875 39.98828125 C102.46895249 45.15468599 123.49632728 45.58617699 144 46 C141.85127628 48.37316089 139.95041451 49.66215494 137.0078125 50.90234375 C136.22760742 51.23331055 135.44740234 51.56427734 134.64355469 51.90527344 C133.81243164 52.2459082 132.98130859 52.58654297 132.125 52.9375 C131.26293945 53.29231445 130.40087891 53.64712891 129.51269531 54.01269531 C111.70934677 61.24177259 93.16458263 64.82195951 74 66 C73.22641144 66.04834991 72.45282288 66.09669983 71.65579224 66.14651489 C66.03496655 66.48296037 60.41939873 66.70537129 54.7902832 66.84448242 C52.798712 66.90669351 50.80780549 66.99575147 48.81860352 67.11108398 C32.72947206 68.02144052 32.72947206 68.02144052 28.25460815 64.70736694 C24.85110046 60.96094014 22.96205963 56.61903504 21 52 C20.1664828 50.53804554 19.31549265 49.08563231 18.43359375 47.65234375 C17.75845596 46.41936385 17.09293133 45.18106755 16.4375 43.9375 C16.07309814 43.24760986 15.70869629 42.55771973 15.33325195 41.84692383 C10.74953924 32.89833628 7.3463034 23.46576465 4 14 C3.75846191 13.3184082 3.51692383 12.63681641 3.26806641 11.93457031 C0 2.62996365 0 2.62996365 0 0 Z " fill="#FBFDFE" transform="translate(168,560)"/>
<path d="M0 0 C1.54052734 1.70898438 1.54052734 1.70898438 3.3359375 4.09375 C4.31433594 5.393125 4.31433594 5.393125 5.3125 6.71875 C5.993125 7.6365625 6.67375 8.554375 7.375 9.5 C8.04789062 10.386875 8.72078125 11.27375 9.4140625 12.1875 C11.33308212 14.75626642 13.18141278 17.35939685 15 20 C15.72292236 21.00401855 15.72292236 21.00401855 16.46044922 22.02832031 C19.02322821 26.14021809 19.16085846 28.81323044 18.1484375 33.546875 C17.58113509 35.62125181 16.98874591 37.68888693 16.375 39.75 C13.35926686 50.86897018 11.82863654 61.53984113 11 73 C9.94538574 73.01458252 8.89077148 73.02916504 7.80419922 73.04418945 C-11.55739856 73.3311273 -30.76504149 73.78519299 -50.00830078 76.0715332 C-51.14509277 76.20519287 -52.28188477 76.33885254 -53.453125 76.4765625 C-54.92507324 76.663396 -54.92507324 76.663396 -56.42675781 76.85400391 C-58.89602429 76.99410081 -60.6615646 76.75346516 -63 76 C-62.59273682 75.61368408 -62.18547363 75.22736816 -61.76586914 74.8293457 C-47.53703859 61.23478098 -30.56716688 43.46482835 -29.88671875 22.51171875 C-28.94265203 18.77288185 -28.77934426 18.43224685 -25.7890625 16.4453125 C-24.41315339 15.65052855 -23.02419997 14.87802513 -21.625 14.125 C-20.16289781 13.28254908 -18.70457372 12.43350892 -17.25 11.578125 C-16.52941406 11.15466797 -15.80882812 10.73121094 -15.06640625 10.29492188 C-11.06864102 7.78970604 -7.58877153 4.71648027 -4.0390625 1.6171875 C-2 0 -2 0 0 0 Z " fill="#FDFDFE" transform="translate(419,568)"/>
<path d="M0 0 C22.50308282 -1.35018497 47.53377435 11.04112788 64.30517578 25.48388672 C67.64059822 28.46760515 70.87057939 31.55123894 74.0625 34.6875 C75.01020264 35.61393311 75.01020264 35.61393311 75.97705078 36.55908203 C79.79996033 40.42328685 82.51069367 44.16416552 85 49 C84.32195312 49.54527344 83.64390625 50.09054687 82.9453125 50.65234375 C72.86929396 58.81643079 63.50014117 67.1652956 55 77 C51.34189955 75.51237248 49.57801615 73.48706677 47.125 70.4375 C43.46522145 66.27209415 39.7603804 63.15072242 35.125 60.1875 C34.52921143 59.80529297 33.93342285 59.42308594 33.31958008 59.02929688 C29.5841707 56.73120696 26.0014027 55.29126458 21.8125 53.9375 C19.14453125 52.80859375 19.14453125 52.80859375 17 51 C15.32441755 46.39611257 14.73166264 41.88488471 14.22412109 37.03076172 C12.75000515 23.67379393 7.06947127 11.31115403 0 0 Z " fill="#FDFDFE" transform="translate(439,422)"/>
<path d="M0 0 C10.04726079 4.36733664 18.55640259 14.3770044 26.1875 22 C26.9302417 22.74193604 27.6729834 23.48387207 28.43823242 24.24829102 C37.20787285 33.10948319 37.20915268 39.94995987 37.24023438 52.07958984 C37.24982302 54.33340054 37.280822 56.58625126 37.3125 58.83984375 C37.4046019 71.3285351 35.81445958 83.02626715 31.4375 94.8125 C30.81681641 96.52373047 30.81681641 96.52373047 30.18359375 98.26953125 C29 101 29 101 27 103 C22.37652583 102.63454156 18.20933083 100.50473582 14 98.6875 C7.5272912 95.93393221 1.1550524 93.7089989 -5.65625 91.921875 C-6.4296875 91.61765625 -7.203125 91.3134375 -8 91 C-9.23333387 87.2999984 -8.62551884 85.67617245 -7.671875 81.91796875 C-7.36773682 80.6870752 -7.06359863 79.45618164 -6.75024414 78.18798828 C-6.58654327 77.5357428 -6.42284241 76.88349731 -6.25418091 76.21148682 C0.02695587 50.99645423 3.19011498 25.97665054 0 0 Z " fill="#FCFDFE" transform="translate(935,289)"/>
<path d="M0 0 C5.34461107 0.95015308 8.41051188 4.69359223 11.640625 8.85546875 C16.44640401 15.92832177 19.31841126 23.35524146 21.8125 31.5 C22.06 32.26828125 22.3075 33.0365625 22.5625 33.828125 C27.472723 51.69588092 22.03062057 70.8642013 13.40161133 86.61962891 C8.73549633 94.69985694 3.27229712 101.80081933 -4.1875 107.5 C-4.28454224 106.62601563 -4.28454224 106.62601563 -4.38354492 105.734375 C-6.27324735 89.22827037 -9.66397595 74.84673872 -16.26953125 59.5625 C-20.51779033 45.38958459 -15.3352843 22.425034 -8.66796875 9.5703125 C-3.57186829 0.81642704 -3.57186829 0.81642704 0 0 Z " fill="#FCFDFE" transform="translate(821.1875,494.5)"/>
<path d="M0 0 C5.15219658 1.56449848 9.88084249 3.66953936 14.6875 6.0625 C15.82541992 6.57973633 15.82541992 6.57973633 16.98632812 7.10742188 C21.23193153 9.24708608 23.37968105 10.88733349 24.9453125 15.46875 C25.32795321 16.97159423 25.68301804 18.48194956 26 20 C26.24105469 20.92683594 26.48210938 21.85367187 26.73046875 22.80859375 C31.65324883 51.12509797 26.81750493 81.87903722 18 109 C10.69808624 108.39969169 3.57132416 107.29701918 -3.625 105.9375 C-4.62917969 105.75123047 -5.63335938 105.56496094 -6.66796875 105.37304688 C-9.11268755 104.91902767 -11.55664548 104.46129456 -14 104 C-13.48050781 103.07960938 -12.96101562 102.15921875 -12.42578125 101.2109375 C2.88518337 73.63649678 5.30383727 42.93126802 0.4453125 12.03515625 C-0.15062432 7.97337637 -0.14627924 4.09581869 0 0 Z " fill="#FCFDFE" transform="translate(896,266)"/>
<path d="M0 0 C10.97286635 2.89910635 18.45814208 9.72443192 26 18 C26.61101562 18.63550781 27.22203125 19.27101563 27.8515625 19.92578125 C29 22 29 22 28.4921875 24.33984375 C26.64139953 27.63928513 24.43296636 30.57813714 22.125 33.5625 C12.58912486 46.2748899 4.88183359 60.07823666 -2.5 74.125 C-3.23851196 75.52782227 -3.23851196 75.52782227 -3.99194336 76.95898438 C-7.03446764 82.84550469 -9.65929587 88.8011582 -12 95 C-12.66 95 -13.32 95 -14 95 C-15.66703001 92.86524214 -17.21987527 90.72990101 -18.75 88.5 C-19.64771803 87.21564265 -20.54615309 85.93178617 -21.4453125 84.6484375 C-21.88133789 84.02291992 -22.31736328 83.39740234 -22.76660156 82.75292969 C-25.0971659 79.44068663 -27.54972796 76.22404215 -30 73 C-28.948125 71.72769531 -28.948125 71.72769531 -27.875 70.4296875 C-10.62662832 49.24528194 -2.75527505 27.0071515 0 0 Z " fill="#FBFCFE" transform="translate(456,486)"/>
<path d="M0 0 C2.43638122 2.33973245 4.52824108 4.53970645 6.26171875 7.44140625 C6.8496521 8.42475952 6.8496521 8.42475952 7.44946289 9.42797852 C7.85801514 10.13237061 8.26656738 10.8367627 8.6875 11.5625 C9.33996704 12.68579712 9.33996704 12.68579712 10.00561523 13.83178711 C21.67390208 34.25393472 30.16053608 56.08379475 36.125 78.8125 C36.43260254 79.98167969 36.74020508 81.15085937 37.05712891 82.35546875 C39.12962339 90.61112982 39.12962339 90.61112982 38 94 C37.2471875 93.27296875 36.494375 92.5459375 35.71875 91.796875 C21.49966023 78.25358451 5.99154846 67.78587328 -11 58 C-10.52949219 56.9584375 -10.05898438 55.916875 -9.57421875 54.84375 C-1.61262333 36.74572592 -0.42381104 19.57491877 0 0 Z " fill="#FAFCFD" transform="translate(984,341)"/>
</svg>
